<?xml version="1.0" encoding="UTF-8" standalone="no"?> <svg id="Layer_1" data-name="Layer 1" xmlns="http://www.w3.org/2000/svg" viewBox="0 0 512 512"><title>Shopping Bag</title><path d="M447.734,421.359,423.2,176.026A53.166,53.166,0,0,0,370.13,128H352V117.333a96,96,0,0,0-192,0V128H141.87A53.166,53.166,0,0,0,88.8,176.026L64.266,421.359A53.336,53.336,0,0,0,117.339,480H394.661a53.336,53.336,0,0,0,53.073-58.641Zm-266.4-304.026a74.667,74.667,0,0,1,149.333,0V128H181.333ZM418.391,448.141a31.648,31.648,0,0,1-23.729,10.526H117.339a32,32,0,0,1-31.844-35.182l24.536-245.333a31.9,31.9,0,0,1,31.839-28.818H160v23.2a32,32,0,1,0,21.333,0v-23.2H330.667v23.2a32,32,0,1,0,21.333,0v-23.2h18.13a31.9,31.9,0,0,1,31.839,28.818l24.536,245.333A31.628,31.628,0,0,1,418.391,448.141ZM170.667,192A10.667,10.667,0,1,1,160,202.667,10.679,10.679,0,0,1,170.667,192Zm170.667,0a10.667,10.667,0,1,1-10.667,10.667A10.679,10.679,0,0,1,341.333,192Z"/></svg>